<?xml version="1.0" encoding="utf-8"?>
<svg xmlns="http://www.w3.org/2000/svg" data-name="Layer 1" id="Layer_1" viewBox="0 0 912 253">
  <defs>
    <style>
      .cls-1 {
        fill: #fff;
      }

      .cls-2 {
        fill: #43d87e;
      }
    </style>
  </defs>
  <path class="cls-1" d="M340.56,66.33h-68.64c-8.1,0-14.66,6.56-14.66,14.66v94.3c0,.89.73,1.62,1.62,1.62h22.06c.89,0,1.62-.73,1.62-1.62v-36.29c0-1.44,1.17-2.61,2.61-2.61h41.25c5.06,0,9.16-4.1,9.16-9.16v-10.99c0-.89-.73-1.62-1.62-1.62h-48.79c-1.44,0-2.61-1.17-2.61-2.61v-21.05c0-1.49,1.21-2.71,2.71-2.71h47.68c5.09,0,9.22-4.13,9.22-9.22v-11.09c0-.9-.72-1.62-1.62-1.62"/>
  <path class="cls-1" d="M388.31,92.17c-13.85,0-25.18,4.83-31.96,13.62-1.18,1.53-1.99,3.37-1.91,5.29.15,3.82,2.76,6.77,6.22,7.48l11.89,2.44c.76.15,1.58-.25,1.81-.95,2.18-6.71,7.76-9.69,17.09-9.08,6.16.39,10.99,5.64,10.99,11.95v4.04h0s-22.89,0-22.89,0c-21.3,0-34.02,9.75-34.02,26.08s11.9,26.42,30.3,26.42c9.7,0,17.93-2.85,24.5-8.48l2.11-1.81v6.23c0,.87.7,1.57,1.57,1.56,3.46-.04,11.37-.04,11.39-.04,5.79,0,10.49-4.71,10.49-10.5v-41.93c0-20.24-14.04-32.33-37.57-32.33M402.43,144.76c0,10.63-9.67,16.98-19.01,16.98-7.96,0-13.1-3.95-13.1-10.06s4.93-10.06,12.26-10.06h19.85v3.13Z"/>
  <path class="cls-1" d="M597.43,155.81c-.41-.2-.88-.21-1.3-.04-3.28,1.31-6.99,2.09-9.91,2.09-8.36,0-12.59-4.58-12.59-13.6v-28.06c0-1.44,1.17-2.6,2.6-2.6h14.54c4.34,0,7.85-3.52,7.85-7.85v-9.42c0-.9-.72-1.62-1.62-1.62h-23.38v-26.75c0-.89-.73-1.62-1.62-1.62h-13.06c-5.4,0-9.78,4.38-9.78,9.78v18.59h-13.75c-.89,0-1.62.73-1.62,1.62v15.65c0,.89.73,1.62,1.62,1.62h11.43c1.28,0,2.32,1.04,2.32,2.32v31.04c0,17.87,14.45,32.45,32.33,32.5,7.39.02,13.54-1.47,20.61-5.02.68-.34,1.02-1.13.8-1.89l-4.63-15.75c-.12-.44-.42-.79-.83-.99"/>
  <path class="cls-1" d="M654.76,92.51c-26.04,0-45.67,18.61-45.67,43.3s19.63,43.47,45.67,43.47,45.16-18.69,45.16-43.47-19.42-43.3-45.16-43.3M654.76,159.04c-10.77,0-22.22-8.14-22.22-23.23s11.3-23.23,22.22-23.23,21.71,8.69,21.71,23.23-11.04,23.23-21.71,23.23"/>
  <path class="cls-1" d="M774.75,93.71c-.71-.1-1.99-.18-3.31-.18-11.98,0-21.44,5.64-28.12,16.77l-2.38,3.96s0-13.29,0-17.96c0-.88-.71-1.59-1.59-1.59h-8.21c-8.1,0-14.66,6.57-14.66,14.66v65.93c0,.89.73,1.62,1.62,1.62h21.22c.89,0,1.62-.73,1.62-1.62v-23.61c0-21.91,10.26-33.02,30.49-33.02h2.09c.87,0,1.58-.68,1.61-1.55.2-6.04.98-21.27.98-21.73,0-.63-.35-1.54-1.37-1.68"/>
  <path class="cls-1" d="M524.75,148.33l-19.36-4.21c-.8-.18-1.56.3-1.86,1.1-3.22,8.53-9.9,13.24-18.8,13.24-12.69,0-21.55-9.28-21.55-22.56s8.86-22.56,21.55-22.56c9.01,0,15.55,4.77,18.43,13.44.24.73,1.11,1.16,1.93.96l19.64-4.72c.45-.11.84-.4,1.07-.81.21-.37.27-.8.15-1.19-5.48-17.48-21.66-28.77-41.21-28.77-25.65,0-44.99,18.76-44.99,43.64s19.34,43.64,44.99,43.64c19.68,0,36.27-11.75,41.28-29.25.11-.39.06-.81-.17-1.18-.24-.4-.63-.69-1.09-.79"/>
  <path class="cls-2" d="M141.59,63.99c-2.15-5.32-5.12-10.05-8.89-14.18-3.77-4.13-8.29-7.47-13.55-10.05-5.27-2.57-11.01-3.86-17.23-3.86h-41.9c-7.19,0-13.02,5.83-13.02,13.02v12.29c0,2.87,2.33,5.2,5.2,5.2h43.08c7.39,0,14.01,5.53,14.39,12.91.41,7.87-5.85,14.38-13.62,14.38h-35.99c-7.21,0-13.05,5.84-13.05,13.05v31.79c0,8.7,10.74,12.8,16.53,6.32l18.46-20.65h20.82c6.22,0,11.94-1.23,17.14-3.68,5.21-2.45,9.63-5.75,13.28-9.87,3.65-4.13,6.49-8.85,8.53-14.18,2.03-5.32,3.05-10.8,3.05-16.42s-1.08-10.74-3.23-16.07"/>
  <path class="cls-2" d="M117.25,179.44c2.15,5.32,5.12,10.05,8.89,14.18,3.77,4.13,8.29,7.47,13.55,10.05,5.27,2.57,11.01,3.86,17.23,3.86h41.9c7.19,0,13.02-5.83,13.02-13.02v-12.29c0-2.87-2.33-5.2-5.2-5.2h-43.07c-7.39,0-14.01-5.53-14.39-12.91-.41-7.87,5.85-14.38,13.62-14.38h35.99c7.21,0,13.05-5.84,13.05-13.05v-31.79c0-8.69-10.74-12.8-16.53-6.31l-18.46,20.65h-20.82c-6.22,0-11.94,1.23-17.14,3.68-5.21,2.45-9.63,5.75-13.28,9.87-3.65,4.13-6.49,8.85-8.53,14.18-2.03,5.32-3.05,10.8-3.05,16.42s1.07,10.74,3.23,16.07"/>
  <path class="cls-1" d="M797.76,215.24l17.22-39.85-33.68-78.68c-.44-1.04.32-2.18,1.44-2.18h22.82c.71,0,1.35.43,1.62,1.1l18.26,45.17c.8,1.98,3.6,2.02,4.45.05l19.53-45.18c.3-.69.98-1.13,1.73-1.13h22.55c.92,0,1.55.95,1.19,1.8l-51.36,120.21c-.24.57-.8.94-1.41.94h-22.9c-1.15,0-1.92-1.18-1.46-2.23"/>
</svg>